<svg xmlns="http://www.w3.org/2000/svg" width="179" height="35" viewBox="0 0 179 35"><rect class="svg__rect" x="0" y="0" width="99.1" height="35" fill="#31C4F3"/><rect class="svg__rect" x="97.1" y="0" width="81.89999999999999" height="35" fill="#389AD5"/><path class="svg__text" d="M19.57 22L14.22 22L14.22 13.47L15.70 13.47L15.70 20.82L19.57 20.82L19.57 22ZM25.26 22L23.79 22L23.79 13.47L25.26 13.47L25.26 22ZM33.18 22L30.07 22L30.07 13.47L33.00 13.47Q34.44 13.47 35.20 14.05Q35.96 14.63 35.96 15.78L35.96 15.78Q35.96 16.36 35.64 16.83Q35.32 17.30 34.71 17.56L34.71 17.56Q35.40 17.75 35.78 18.26Q36.16 18.78 36.16 19.51L36.16 19.51Q36.16 20.71 35.39 21.36Q34.62 22 33.18 22L33.18 22ZM31.56 18.15L31.56 20.82L33.20 20.82Q33.90 20.82 34.29 20.47Q34.68 20.13 34.68 19.51L34.68 19.51Q34.68 18.18 33.32 18.15L33.32 18.15L31.56 18.15ZM31.56 14.66L31.56 17.06L33.01 17.06Q33.70 17.06 34.09 16.75Q34.48 16.43 34.48 15.86L34.48 15.86Q34.48 15.23 34.12 14.95Q33.76 14.66 33.00 14.66L33.00 14.66L31.56 14.66ZM42.11 22L40.63 22L40.63 13.47L43.63 13.47Q45.11 13.47 45.91 14.13Q46.71 14.79 46.71 16.05L46.71 16.05Q46.71 16.90 46.30 17.48Q45.89 18.06 45.15 18.37L45.15 18.37L47.06 21.92L47.06 22L45.48 22L43.77 18.71L42.11 18.71L42.11 22ZM42.11 14.66L42.11 17.52L43.64 17.52Q44.39 17.52 44.81 17.15Q45.23 16.77 45.23 16.11L45.23 16.11Q45.23 15.43 44.84 15.05Q44.45 14.68 43.68 14.66L43.68 14.66L42.11 14.66ZM51.89 22L50.35 22L53.57 13.47L54.90 13.47L58.13 22L56.58 22L55.88 20.01L52.58 20.01L51.89 22ZM54.23 15.28L52.99 18.82L55.47 18.82L54.23 15.28ZM63.65 22L62.17 22L62.17 13.47L63.65 13.47L63.65 22ZM69.94 22L68.46 22L68.46 13.47L71.46 13.47Q72.93 13.47 73.74 14.13Q74.54 14.79 74.54 16.05L74.54 16.05Q74.54 16.90 74.13 17.48Q73.71 18.06 72.97 18.37L72.97 18.37L74.89 21.92L74.89 22L73.30 22L71.59 18.71L69.94 18.71L69.94 22ZM69.94 14.66L69.94 17.52L71.46 17.52Q72.21 17.52 72.64 17.15Q73.06 16.77 73.06 16.11L73.06 16.11Q73.06 15.43 72.67 15.05Q72.28 14.68 71.50 14.66L71.50 14.66L69.94 14.66ZM80.97 18.86L78.11 13.47L79.75 13.47L81.72 17.51L83.68 13.47L85.32 13.47L82.46 18.86L82.46 22L80.97 22L80.97 18.86Z" fill="#FFFFFF"/><path class="svg__text" d="M113.67 22L111.29 22L111.29 13.60L115.13 13.60Q116.27 13.60 117.11 13.98Q117.95 14.35 118.41 15.06Q118.86 15.76 118.86 16.71L118.86 16.71Q118.86 17.62 118.44 18.30Q118.01 18.98 117.22 19.36L117.22 19.36L119.03 22L116.49 22L114.96 19.77L113.67 19.77L113.67 22ZM113.67 15.47L113.67 17.93L114.99 17.93Q115.72 17.93 116.09 17.61Q116.46 17.29 116.46 16.71L116.46 16.71Q116.46 16.12 116.09 15.79Q115.72 15.47 114.99 15.47L114.99 15.47L113.67 15.47ZM130.40 22L123.65 22L123.65 13.60L130.24 13.60L130.24 15.44L126.01 15.44L126.01 16.85L129.74 16.85L129.74 18.63L126.01 18.63L126.01 20.17L130.40 20.17L130.40 22ZM136.62 22L134.19 22L137.90 13.60L140.24 13.60L143.96 22L141.49 22L140.83 20.37L137.28 20.37L136.62 22ZM139.06 15.93L137.97 18.61L140.13 18.61L139.06 15.93ZM147.69 17.80L147.69 17.80Q147.69 16.54 148.28 15.54Q148.88 14.55 149.93 13.99Q150.99 13.43 152.30 13.43L152.30 13.43Q153.46 13.43 154.38 13.84Q155.30 14.25 155.92 15.02L155.92 15.02L154.41 16.39Q153.59 15.40 152.43 15.40L152.43 15.40Q151.74 15.40 151.21 15.70Q150.67 16 150.38 16.54Q150.08 17.09 150.08 17.80L150.08 17.80Q150.08 18.51 150.38 19.05Q150.67 19.60 151.21 19.90Q151.74 20.20 152.43 20.20L152.43 20.20Q153.59 20.20 154.41 19.22L154.41 19.22L155.92 20.58Q155.31 21.35 154.38 21.76Q153.46 22.17 152.30 22.17L152.30 22.17Q150.99 22.17 149.93 21.61Q148.88 21.05 148.28 20.05Q147.69 19.06 147.69 17.80ZM162.25 15.48L159.66 15.48L159.66 13.60L167.19 13.60L167.19 15.48L164.62 15.48L164.62 22L162.25 22L162.25 15.48Z" fill="#FFFFFF" x="110.1"/></svg>