<svg width="60" height="60" viewBox="0 0 60 60" fill="none" xmlns="http://www.w3.org/2000/svg">
<g clip-path="url(#clip0_203_759)">
<path opacity="0.066125" d="M54 0H6C2.68629 0 0 2.68629 0 6V54C0 57.3137 2.68629 60 6 60H54C57.3137 60 60 57.3137 60 54V6C60 2.68629 57.3137 0 54 0Z" fill="#FF0000"/>
<path d="M31.9051 28.8663C31.9051 28.8663 32.8376 23.3812 29.0326 21C28.9179 22.9061 27.9969 24.6731 26.5001 25.8587C24.8751 27.2875 21.8188 30.5 21.8513 33.925C21.8275 36.9116 23.4992 39.6534 26.1651 41C26.2594 39.6645 26.8875 38.4233 27.9076 37.5562C28.772 36.8915 29.3331 35.9074 29.4651 34.825C31.7408 36.0348 33.2126 38.3521 33.3401 40.9263V40.9425C35.8553 39.7904 37.511 37.3241 37.6251 34.56C37.8951 31.3425 36.1326 26.9675 34.5688 25.5375C33.9785 26.8556 33.0616 28.0013 31.9051 28.8663Z" fill="#FF0000"/>
</g>
<defs>
<clipPath id="clip0_203_759">
<rect width="60" height="60" fill="white"/>
</clipPath>
</defs>
</svg>
