<svg xmlns="http://www.w3.org/2000/svg" fill="none" viewBox="0 0 64 64">
<g clip-path="url(#clip0_189_753)">
<path d="M58 0H6C2.68629 0 0 2.68629 0 6V58C0 61.3137 2.68629 64 6 64H58C61.3137 64 64 61.3137 64 58V6C64 2.68629 61.3137 0 58 0Z" fill="white"/>
<path d="M45.712 36.576L48 34.288L45.712 32L40 37.712L26.288 24L32 18.288L29.712 16L27.424 18.288L25.136 16L21.712 19.424L19.424 17.136L17.136 19.424L19.424 21.712L16 25.136L18.288 27.424L16 29.712L18.288 32L24 26.288L37.712 40L32 45.712L34.288 48L36.576 45.712L38.864 48L42.288 44.576L44.576 46.864L46.864 44.576L44.576 42.288L48 38.864L45.712 36.576Z" fill="#FF0101"/>
</g>
<defs>
<clipPath id="clip0_189_753">
<rect width="64" height="64" fill="white"/>
</clipPath>
</defs>
</svg>