<svg width="60" height="60" viewBox="0 0 60 60" fill="none" xmlns="http://www.w3.org/2000/svg">
<g clip-path="url(#clip0_204_762)">
<path d="M54 0H6C2.68629 0 0 2.68629 0 6V54C0 57.3137 2.68629 60 6 60H54C57.3137 60 60 57.3137 60 54V6C60 2.68629 57.3137 0 54 0Z" fill="#4AB8FF" fill-opacity="0.1"/>
<path d="M39.2353 24.4708C38.8824 24.1178 38.4118 23.8825 38.0588 23.8825C37.9412 23.412 37.8235 23.059 37.4706 22.7061C36.6471 21.8825 35.2353 21.8825 34.4118 22.7061C33.7059 23.412 33.5882 24.5884 34.1765 25.412L31.5882 27.8825L30.2941 26.5884L27.7059 29.1767C27.4706 29.059 27.1176 29.059 26.8824 29.059C23.5882 29.059 21 31.6473 21 34.9414C21 38.2355 23.5882 40.8237 26.8824 40.8237C30.1765 40.8237 32.7647 38.2355 32.7647 34.9414C32.7647 34.7061 32.7647 34.3531 32.6471 34.1178L35.2353 31.5296L33.9412 30.2355L36.4118 27.7649C37.2353 28.3531 38.4118 28.2355 39.1176 27.5296C40.0588 26.7061 40.0588 25.2943 39.2353 24.4708Z" fill="#4AB8FF"/>
</g>
<defs>
<clipPath id="clip0_204_762">
<rect width="60" height="60" fill="white"/>
</clipPath>
</defs>
</svg>
